<?xml version="1.0" standalone="no"?>
<!DOCTYPE svg PUBLIC "-//W3C//DTD SVG 20010904//EN"
 "http://www.w3.org/TR/2001/REC-SVG-20010904/DTD/svg10.dtd">
<svg version="1.0" xmlns="http://www.w3.org/2000/svg"
 width="500.000000pt" height="500.000000pt" viewBox="0 0 500.000000 500.000000"
 preserveAspectRatio="xMidYMid meet">

<g transform="translate(0.000000,500.000000) scale(0.100000,-0.100000)"
fill="#000000" stroke="none">
<path d="M2250 4476 c-304 -44 -621 -181 -889 -383 -132 -101 -170 -135 -274
-251 -317 -351 -489 -748 -528 -1218 -18 -217 14 -501 82 -720 50 -162 168
-401 263 -532 114 -159 289 -348 401 -435 268 -208 615 -370 880 -412 170 -27
426 -30 590 -6 382 55 777 262 1078 565 258 261 418 527 511 854 51 176 67
287 73 489 6 193 -3 307 -39 473 -86 406 -303 789 -600 1064 -98 90 -112 101
-248 192 -47 31 -97 65 -111 75 -53 36 -307 148 -416 183 -61 20 -154 43 -205
52 -128 22 -445 27 -568 10z m467 -107 c454 -61 918 -334 1203 -707 111 -144
120 -159 212 -340 84 -166 125 -286 157 -457 11 -60 23 -123 26 -140 14 -75
17 -318 5 -426 -29 -271 -128 -586 -229 -739 -10 -14 -39 -58 -66 -99 -27 -41
-77 -107 -111 -147 l-62 -73 -7 67 c-14 135 -71 260 -158 351 -57 58 -96 82
-200 120 -48 18 -169 68 -269 112 -99 43 -183 79 -185 79 -3 0 27 -60 65 -133
l69 -133 -73 -82 c-41 -45 -74 -88 -74 -94 0 -16 81 63 131 129 l40 52 -51 97
c-47 89 -55 115 -32 100 10 -6 122 -189 122 -199 0 -3 -33 -46 -72 -94 -40
-49 -79 -95 -86 -104 -10 -14 -6 -23 28 -62 22 -25 40 -47 40 -50 0 -13 -103
-123 -121 -129 -29 -11 -23 1 31 67 l50 59 -38 41 c-21 22 -48 52 -60 66 l-23
27 75 83 c42 46 76 90 76 98 0 7 -15 39 -34 70 -18 31 -52 92 -75 136 -26 50
-68 107 -111 153 -39 41 -70 72 -70 70 0 -17 37 -122 57 -161 l24 -49 -117
-119 c-65 -66 -122 -118 -126 -117 -14 5 -168 140 -168 147 0 7 100 76 247
172 l53 34 0 153 0 153 -61 -65 c-158 -170 -336 -170 -497 -2 l-62 64 0 -152
0 -153 151 -99 151 -99 -83 -77 c-46 -42 -88 -77 -93 -78 -15 0 -226 224 -226
241 0 9 11 42 25 73 14 31 29 76 34 99 l10 42 -74 -77 c-51 -52 -87 -102 -114
-155 -21 -43 -55 -107 -75 -141 l-36 -64 79 -92 79 -92 -60 -68 -61 -67 30
-32 c16 -18 40 -47 52 -64 39 -57 0 -37 -66 34 l-62 67 45 49 c46 48 46 48 27
70 -11 12 -47 53 -81 91 -35 38 -65 79 -68 92 -4 16 9 47 45 107 56 93 90 131
76 87 -4 -14 -25 -57 -46 -97 -21 -40 -39 -78 -39 -85 0 -7 24 -40 53 -73 87
-101 106 -119 113 -112 4 4 -27 47 -69 96 l-77 89 66 127 c36 69 64 128 62
131 -3 2 -58 -21 -124 -52 -65 -31 -175 -78 -244 -105 -206 -82 -217 -88 -287
-162 -88 -94 -130 -182 -146 -310 l-12 -97 -45 57 c-140 175 -204 277 -282
450 -70 156 -101 272 -133 498 -46 324 20 765 154 1030 l30 60 0 -192 1 -193
136 0 c122 0 135 -2 132 -17 -2 -9 -14 -20 -28 -24 -16 -4 4 -8 55 -10 44 -1
89 -2 99 -3 11 0 21 5 24 13 3 10 -2 12 -22 7 -22 -5 -26 -3 -26 15 0 21 3 21
133 18 l132 -4 3 213 2 212 -302 1 c-167 1 -307 1 -311 0 -17 -3 126 232 163
269 9 9 41 47 71 85 52 64 223 230 273 264 12 8 23 18 26 21 12 16 192 126
294 181 151 79 378 153 551 178 87 12 351 13 442 0z m-1519 -1036 l-287 -3 -4
-158 -3 -157 -2 163 -2 162 293 -2 292 -3 -287 -2z m-231 -49 c-3 -3 -12 -4
-19 -1 -8 3 -5 6 6 6 11 1 17 -2 13 -5z m30 -30 c-3 -3 -12 -4 -19 -1 -8 3 -5
6 6 6 11 1 17 -2 13 -5z m26 -21 c-7 -2 -19 -2 -25 0 -7 3 -2 5 12 5 14 0 19
-2 13 -5z m40 -20 c-13 -2 -33 -2 -45 0 -13 2 -3 4 22 4 25 0 35 -2 23 -4z
m-26 -19 c-3 -3 -12 -4 -19 -1 -8 3 -5 6 6 6 11 1 17 -2 13 -5z m-10 -20 c-3
-3 -12 -4 -19 -1 -8 3 -5 6 6 6 11 1 17 -2 13 -5z m101 -1 c-15 -2 -42 -2 -60
0 -18 2 -6 4 27 4 33 0 48 -2 33 -4z m95 0 c-7 -2 -19 -2 -25 0 -7 3 -2 5 12
5 14 0 19 -2 13 -5z m-180 -30 c-7 -2 -21 -2 -30 0 -10 3 -4 5 12 5 17 0 24
-2 18 -5z m50 0 c-7 -2 -19 -2 -25 0 -7 3 -2 5 12 5 14 0 19 -2 13 -5z m-73
-23 c-25 -4 -36 -8 -26 -8 11 -1 17 -5 13 -8 -3 -4 -13 -4 -22 0 -29 11 -5 26
38 24 l42 -1 -45 -7z m87 -36 c-3 -3 -12 -4 -19 -1 -8 3 -5 6 6 6 11 1 17 -2
13 -5z m-42 -24 c-16 -6 -55 3 -55 13 0 2 17 1 38 -1 29 -4 33 -6 17 -12z m78
-27 c-23 -2 -64 -2 -90 0 -26 2 -7 3 42 3 50 0 71 -1 48 -3z m145 0 c-10 -2
-28 -2 -40 0 -13 2 -5 4 17 4 22 1 32 -1 23 -4z m49 -50 c-81 -2 -213 -2 -295
0 -81 1 -14 3 148 3 162 0 229 -2 147 -3z m803 -1218 c60 -154 82 -205 86
-205 2 0 36 34 76 75 l73 75 48 -45 c38 -35 45 -45 29 -45 -14 0 -21 -9 -25
-32 -7 -37 -25 -195 -35 -306 l-7 -74 -97 179 c-112 206 -208 437 -208 501 0
25 7 12 60 -123z m765 78 c-14 -77 -99 -273 -192 -445 -53 -97 -100 -175 -103
-173 -4 2 -10 51 -14 107 -4 57 -13 143 -19 193 -11 79 -14 90 -34 95 -21 5
-18 9 30 46 l54 41 68 -74 c55 -60 70 -72 80 -61 6 7 38 79 70 161 32 81 61
147 63 147 2 0 1 -17 -3 -37z m-1126 -542 c53 -17 161 -46 241 -66 238 -60
459 -130 446 -142 -1 -2 -32 6 -67 16 -35 11 -96 27 -135 35 -39 8 -174 43
-300 76 -126 34 -246 66 -266 71 -27 7 -36 14 -32 24 8 19 1 20 113 -14z
m1554 15 c4 -9 -1 -17 -11 -20 -110 -32 -676 -177 -787 -202 -11 -2 0 5 25 17
52 24 215 73 415 123 77 20 183 49 235 65 112 35 116 35 123 17z m-1553 -71
c140 -37 240 -64 498 -136 l152 -42 0 -229 0 -228 -33 0 c-40 0 -195 19 -221
26 -16 5 -11 14 33 58 28 28 51 57 51 64 0 18 -47 45 -64 35 -8 -4 -34 -26
-58 -48 -87 -80 -91 -78 -10 7 62 65 81 90 76 104 -7 20 -32 44 -46 44 -5 0
-59 -46 -121 -102 -113 -103 -109 -93 17 40 65 69 68 73 54 95 -32 47 -57 36
-178 -82 -91 -89 -116 -108 -127 -99 -12 9 2 28 76 102 90 90 105 118 79 144
-29 29 -60 13 -162 -87 -85 -84 -103 -98 -117 -88 -12 9 -21 58 -38 202 -12
105 -25 207 -28 229 -5 34 -4 38 13 33 10 -3 80 -22 154 -42z m1580 -186 c-20
-175 -29 -233 -41 -239 -11 -6 -42 17 -119 91 -62 58 -113 99 -125 99 -32 0
-47 -15 -47 -45 0 -22 19 -47 92 -117 71 -69 90 -92 79 -99 -8 -5 -16 -9 -19
-9 -3 0 -55 49 -115 110 -111 112 -142 129 -173 98 -27 -27 -11 -55 83 -148
52 -52 92 -96 90 -99 -3 -2 -52 41 -109 97 -106 105 -136 120 -156 83 -19 -36
-11 -51 73 -138 l82 -87 -82 71 c-87 77 -117 85 -129 36 -6 -21 2 -32 45 -70
29 -25 49 -49 44 -53 -9 -10 -169 -30 -230 -30 l-43 0 0 224 0 225 83 25 c45
13 206 59 357 100 151 42 295 82 320 90 25 8 50 15 55 15 6 1 0 -87 -15 -230z
m-842 -19 c9 0 12 -51 12 -221 l0 -220 -32 3 -33 3 -3 224 -3 224 23 -7 c13
-3 29 -6 36 -6z"/>
<path d="M2385 4305 c-69 -37 -81 -49 -117 -122 -28 -58 -30 -69 -26 -140 6
-93 35 -157 98 -218 60 -58 70 -82 70 -175 0 -74 2 -80 20 -80 19 0 20 5 17
74 l-5 73 54 -1 54 0 0 -78 c0 -65 2 -76 15 -72 11 5 15 23 15 74 0 88 10 114
70 175 106 109 136 256 76 379 -23 46 -40 65 -85 94 -49 32 -65 37 -131 40
-66 3 -81 0 -125 -23z m241 -36 c78 -52 131 -212 90 -270 -13 -19 -16 -20 -16
-6 0 9 6 17 13 17 8 0 7 4 -3 10 -13 9 -13 10 0 12 8 1 -16 4 -55 8 l-70 6 70
2 c45 2 65 5 56 11 -8 5 -11 16 -8 25 4 11 1 16 -11 17 -14 0 -14 2 3 9 17 7
15 9 -12 9 -27 1 -33 5 -34 24 l-2 22 -4 -22 c-4 -22 -9 -23 -94 -23 -72 0
-89 3 -89 15 0 12 16 15 78 17 l77 2 -80 6 -80 6 80 4 80 4 -80 6 -80 6 80 4
80 4 -70 6 -70 6 70 4 70 4 -70 6 -70 6 68 2 c60 2 68 4 65 20 -2 9 -10 16
-16 15 -7 -2 -12 2 -12 7 0 6 -32 10 -76 10 -70 0 -76 -2 -82 -22 -5 -19 -6
-19 -11 -5 -6 16 -9 15 -37 -5 -18 -14 -28 -30 -26 -40 2 -10 -2 -18 -8 -18
-6 0 -8 5 -4 13 6 8 3 8 -9 -2 -9 -7 -19 -28 -23 -47 -3 -19 -10 -34 -15 -34
-4 0 -10 -30 -12 -67 l-3 -68 -2 73 c-2 59 2 81 22 120 47 93 103 124 217 120
62 -3 83 -8 115 -29z m-168 -42 c12 -3 10 -5 -5 -6 -19 -1 -23 4 -22 27 1 22
2 23 6 5 2 -12 12 -24 21 -26z m87 21 c6 -4 2 -8 -7 -8 -10 0 -18 7 -18 17 0
9 3 12 8 7 4 -5 12 -12 17 -16z m-153 -53 c0 -26 -3 -49 -6 -52 -3 -4 -6 20
-6 52 0 32 3 56 6 53 3 -4 6 -27 6 -53z m-25 3 c-3 -7 -5 -2 -5 12 0 14 2 19
5 13 2 -7 2 -19 0 -25z m55 7 c3 -13 1 -22 -3 -19 -9 5 -13 44 -5 44 2 0 6
-11 8 -25z m126 -97 c65 -1 82 -3 52 -7 l-45 -5 60 -6 c42 -5 22 -7 -70 -7
-105 1 -117 2 -60 7 l70 6 -70 3 c-38 1 -64 5 -57 8 6 2 13 23 14 46 l1 42 4
-42 4 -43 97 -2z m-121 40 c-3 -8 -6 -5 -6 6 -1 11 2 17 5 13 3 -3 4 -12 1
-19z m-84 -25 c-7 -2 -19 -2 -25 0 -7 3 -2 5 12 5 14 0 19 -2 13 -5z m64 1
c-3 -3 -12 -4 -19 -1 -8 3 -5 6 6 6 11 1 17 -2 13 -5z m-110 -51 c-3 -10 -5
-4 -5 12 0 17 2 24 5 18 2 -7 2 -21 0 -30z m91 30 c-16 -2 -40 -2 -55 0 -16 2
-3 4 27 4 30 0 43 -2 28 -4z m-61 -28 c0 -8 -4 -15 -9 -15 -4 0 -8 7 -8 15 0
8 4 15 8 15 5 0 9 -7 9 -15z m20 -7 c-3 -8 -6 -5 -6 6 -1 11 2 17 5 13 3 -3 4
-12 1 -19z m20 0 c-3 -8 -6 -5 -6 6 -1 11 2 17 5 13 3 -3 4 -12 1 -19z m323 7
c0 -9 -9 -15 -22 -14 -17 1 -19 2 -5 6 9 2 17 9 17 14 0 5 2 9 5 9 3 0 5 -7 5
-15z m-287 -45 c9 0 9 -2 0 -8 -6 -4 -13 -28 -16 -52 -2 -27 -4 -15 -4 30 0
41 2 65 4 53 2 -13 10 -23 16 -23z m24 -52 c-2 -18 -4 -4 -4 32 0 36 2 50 4
33 2 -18 2 -48 0 -65z m86 85 c-7 -2 -19 -2 -25 0 -7 3 -2 5 12 5 14 0 19 -2
13 -5z m-146 -90 c-2 -16 -4 -3 -4 27 0 30 2 43 4 28 2 -16 2 -40 0 -55z m-70
25 c-3 -7 -5 -2 -5 12 0 14 2 19 5 13 2 -7 2 -19 0 -25z m50 -30 c-2 -13 -4
-3 -4 22 0 25 2 35 4 23 2 -13 2 -33 0 -45z m161 55 c-53 -4 -57 -6 -61 -31
-4 -25 -4 -24 -6 6 l-1 32 63 -2 62 -2 -57 -3z m105 0 c-7 -2 -21 -2 -30 0
-10 3 -4 5 12 5 17 0 24 -2 18 -5z m65 0 c-10 -2 -26 -2 -35 0 -10 3 -2 5 17
5 19 0 27 -2 18 -5z m-211 -65 c-2 -13 -4 -5 -4 17 -1 22 1 32 4 23 2 -10 2
-28 0 -40z m110 15 c-3 -10 -5 -4 -5 12 0 17 2 24 5 18 2 -7 2 -21 0 -30z m20
0 c-3 -10 -5 -4 -5 12 0 17 2 24 5 18 2 -7 2 -21 0 -30z m20 0 c-3 -10 -5 -4
-5 12 0 17 2 24 5 18 2 -7 2 -21 0 -30z m20 15 c-3 -8 -6 -5 -6 6 -1 11 2 17
5 13 3 -3 4 -12 1 -19z m50 -55 c-2 -16 -4 -3 -4 27 0 30 2 43 4 28 2 -16 2
-40 0 -55z m-197 7 c0 -27 -3 -50 -7 -50 -5 0 -6 22 -5 50 5 65 12 65 12 0z
m67 28 c-3 -8 -6 -5 -6 6 -1 11 2 17 5 13 3 -3 4 -12 1 -19z m60 -65 c-3 -10
-5 -2 -5 17 0 19 2 27 5 18 2 -10 2 -26 0 -35z m-110 -5 c-3 -7 -5 -2 -5 12 0
14 2 19 5 13 2 -7 2 -19 0 -25z m70 0 c-3 -7 -5 -2 -5 12 0 14 2 19 5 13 2 -7
2 -19 0 -25z m51 -21 c24 -4 24 -4 -5 -6 -31 -1 -33 1 -32 32 2 29 2 29 6 5 3
-20 11 -28 31 -31z m-205 36 c-7 -2 -21 -2 -30 0 -10 3 -4 5 12 5 17 0 24 -2
18 -5z m20 -20 c-13 -2 -33 -2 -45 0 -13 2 -3 4 22 4 25 0 35 -2 23 -4z m132
-15 c6 -4 -6 -7 -25 -7 -19 1 -27 3 -17 6 9 2 17 9 17 15 0 7 3 7 8 2 4 -5 12
-12 17 -16z m88 15 c-7 -2 -19 -2 -25 0 -7 3 -2 5 12 5 14 0 19 -2 13 -5z
m-220 -20 c-13 -2 -33 -2 -45 0 -13 2 -3 4 22 4 25 0 35 -2 23 -4z m60 0 c-7
-2 -19 -2 -25 0 -7 3 -2 5 12 5 14 0 19 -2 13 -5z m-116 -35 c-3 -8 -6 -5 -6
6 -1 11 2 17 5 13 3 -3 4 -12 1 -19z m50 16 c-3 -3 -12 -4 -19 -1 -8 3 -5 6 6
6 11 1 17 -2 13 -5z m90 -26 c-3 -7 -5 -2 -5 12 0 14 2 19 5 13 2 -7 2 -19 0
-25z m20 0 c-3 -7 -5 -2 -5 12 0 14 2 19 5 13 2 -7 2 -19 0 -25z m20 -20 c-3
-7 -5 -2 -5 12 0 14 2 19 5 13 2 -7 2 -19 0 -25z"/>
<path d="M2620 4231 c0 -12 5 -21 10 -21 6 0 10 -10 11 -22 1 -22 1 -22 9 2 7
21 8 19 9 -17 1 -38 4 -43 24 -42 21 0 21 1 2 9 -13 6 -15 9 -5 9 9 1 11 4 5
9 -5 4 -12 16 -13 27 -5 27 -22 46 -35 38 -5 -3 -7 -1 -3 5 3 6 2 13 -4 17 -5
3 -10 -3 -10 -14z"/>
<path d="M2622 4155 c0 -16 2 -22 5 -12 2 9 2 23 0 30 -3 6 -5 -1 -5 -18z"/>
<path d="M2503 4133 c20 -2 54 -2 75 0 20 2 3 4 -38 4 -41 0 -58 -2 -37 -4z"/>
<path d="M1849 4192 c-156 -81 -119 -321 55 -347 173 -26 290 174 179 306 -33
39 -95 68 -144 69 -21 0 -60 -12 -90 -28z m91 -7 c9 -11 9 -22 1 -48 -12 -34
-13 -34 -59 -29 -26 2 -49 6 -51 9 -3 2 0 16 5 31 6 18 21 31 44 39 45 15 46
15 60 -2z m141 -69 c27 -43 25 -66 -5 -66 -31 0 -56 34 -56 76 0 28 3 31 21
27 12 -3 30 -20 40 -37z m-62 -40 c19 -20 22 -32 17 -60 -11 -57 -56 -72 -107
-35 -54 38 -30 119 36 119 21 0 39 -8 54 -24z m-156 -10 c36 -9 38 -53 2 -84
-14 -12 -25 -26 -25 -32 0 -17 -29 -11 -50 10 -27 27 -26 77 2 107 13 14 25
19 32 14 6 -4 23 -11 39 -15z m191 -128 c13 -22 -3 -41 -56 -63 -35 -14 -38
-14 -48 5 -28 52 72 108 104 58z m-191 -35 c16 -13 37 -23 47 -23 10 0 22 -5
26 -11 11 -19 -57 0 -98 27 -39 25 -52 48 -20 37 9 -4 30 -17 45 -30z"/>
<path d="M2962 4204 c-51 -26 -82 -79 -82 -139 0 -91 62 -155 150 -155 158 0
216 187 88 283 -36 27 -114 32 -156 11z m123 -16 c14 -6 25 -15 25 -19 0 -12
-31 -20 -54 -14 -19 5 -19 5 -3 -5 27 -17 23 -78 -6 -91 -36 -16 -77 4 -77 37
0 30 25 64 48 64 11 0 12 3 3 13 -22 27 18 36 64 15z m65 -49 c0 -6 -4 -7 -10
-4 -5 3 -10 11 -10 16 0 6 5 7 10 4 6 -3 10 -11 10 -16z m-193 -44 c2 -16 -4
-38 -12 -49 -20 -26 -45 -13 -45 23 0 45 10 62 34 59 15 -2 22 -11 23 -33z
m213 -32 c0 -16 -5 -35 -10 -43 -7 -11 -10 -4 -10 28 0 23 5 42 10 42 6 0 10
-12 10 -27z m-38 -17 c12 -18 10 -25 -17 -52 -36 -36 -69 -29 -73 14 -2 24 2
38 15 47 19 15 63 9 75 -9z m-178 -66 l19 -32 -21 11 c-20 10 -42 40 -42 56 0
16 27 -5 44 -35z m109 -24 c9 -7 17 -16 17 -20 0 -10 -88 -7 -95 4 -18 29 44
41 78 16z"/>
<path d="M2797 4183 c-12 -11 -8 -23 8 -23 8 0 15 7 15 15 0 16 -12 20 -23 8z"/>
<path d="M3300 4090 c-12 -8 -11 -10 8 -10 12 0 22 5 22 10 0 13 -11 13 -30 0z"/>
<path d="M3314 4019 c-9 -15 11 -33 30 -26 9 4 13 13 10 22 -7 17 -30 20 -40
4z"/>
<path d="M1480 3940 c-29 -29 -26 -74 6 -99 34 -27 55 -26 82 2 28 30 28 68
-1 95 -29 27 -61 28 -87 2z m58 -23 c4 -20 -25 -34 -40 -19 -15 15 -1 44 19
40 10 -2 19 -11 21 -21z"/>
<path d="M3294 3895 c-6 -34 -7 -35 -54 -35 -31 0 -54 -6 -64 -16 -34 -33 -9
-135 36 -150 20 -6 17 -9 -28 -32 -27 -13 -52 -30 -56 -36 -4 -6 -8 -44 -8
-84 0 -55 -4 -74 -15 -78 -23 -9 -22 -296 2 -315 13 -11 72 -13 312 -11 258 3
298 6 309 20 8 11 12 61 12 164 0 125 -2 148 -15 148 -12 0 -15 16 -15 80 l0
80 -57 29 c-50 25 -54 29 -35 35 33 11 46 45 43 114 -1 20 -6 22 -63 24 l-63
1 60 6 c68 7 53 21 -21 21 -44 0 -44 0 -44 35 l0 35 -115 0 -114 0 -7 -35z
m216 -35 c0 -45 -3 -51 -30 -65 -42 -22 -102 -19 -134 6 -21 17 -26 29 -26 65
l0 44 95 0 95 0 0 -50z m-232 -27 c-15 -2 -42 -2 -60 0 -18 2 -6 4 27 4 33 0
48 -2 33 -4z m97 -95 c-48 -27 -58 -71 -25 -106 12 -12 16 -22 11 -22 -15 0
-51 51 -51 73 0 27 38 67 64 67 21 -1 21 -1 1 -12z m-85 -65 c0 -9 11 -31 25
-49 16 -21 25 -46 25 -68 0 -35 -1 -36 -40 -36 -38 0 -40 1 -34 25 4 15 2 25
-5 25 -12 0 -16 102 -4 113 12 13 33 7 33 -10z m288 -45 c2 -39 -1 -58 -9 -58
-7 0 -9 -10 -7 -25 5 -23 2 -25 -33 -25 -38 0 -39 1 -39 37 0 53 40 133 65
130 17 -2 20 -11 23 -59z m-97 -1 l-24 -22 19 27 c10 14 21 24 23 22 3 -3 -6
-15 -18 -27z m-251 -42 l0 -65 -45 0 -45 0 0 44 c0 36 5 48 26 65 15 12 35 21
45 21 17 0 19 -8 19 -65z m423 54 c31 -17 37 -28 37 -76 l0 -43 -44 0 -44 0
-1 65 c0 70 7 77 52 54z m-180 -61 c-2 -5 -28 -8 -58 -8 -30 0 -56 3 -58 8 -3
4 23 7 58 7 35 0 61 -3 58 -7z m212 -108 c-4 -6 -105 -10 -270 -10 -165 0
-266 4 -270 10 -4 7 88 10 270 10 182 0 274 -3 270 -10z m-285 -50 c0 -5 -4
-10 -10 -10 -5 0 -10 5 -10 10 0 6 5 10 10 10 6 0 10 -4 10 -10z m50 0 c0 -5
-4 -10 -10 -10 -5 0 -10 5 -10 10 0 6 5 10 10 10 6 0 10 -4 10 -10z m68 -23
c-59 -50 -65 -117 -15 -173 23 -27 26 -34 11 -26 -43 23 -68 81 -57 134 6 31
70 104 81 93 3 -3 -6 -16 -20 -28z m-202 -6 c63 -38 70 -128 13 -175 -17 -14
-36 -26 -42 -26 -7 0 2 9 19 20 78 50 64 153 -26 189 -14 5 -18 10 -10 10 8 1
29 -8 46 -18z m-22 -53 c32 -46 7 -108 -43 -108 -34 0 -63 30 -63 65 0 58 75
88 106 43z m340 0 c33 -47 7 -108 -46 -108 -40 0 -68 25 -68 62 0 60 81 93
114 46z"/>
<path d="M2794 3817 c-11 -28 38 -131 82 -174 39 -38 44 -48 44 -88 0 -49 -23
-115 -39 -115 -6 0 -11 -4 -11 -10 0 -6 32 -10 75 -10 41 0 75 3 75 7 0 3 -8
15 -17 25 -11 13 -19 42 -21 84 -4 64 -4 67 31 102 37 38 80 115 92 165 l7 27
-156 0 c-122 0 -158 -3 -162 -13z m286 -28 c0 -6 -5 -19 -10 -30 -10 -17 -22
-19 -124 -19 l-114 0 -11 30 -10 30 135 0 c88 0 134 -4 134 -11z m-118 -256
c2 -32 8 -66 12 -75 7 -15 3 -18 -24 -18 -27 0 -31 3 -25 18 4 9 10 43 13 75
2 31 8 57 12 57 5 0 10 -26 12 -57z"/>
<path d="M1700 3810 c0 -5 9 -10 20 -10 11 0 20 5 20 10 0 6 -9 10 -20 10 -11
0 -20 -4 -20 -10z"/>
<path d="M2140 3790 c0 -5 11 -10 25 -10 14 0 25 5 25 10 0 6 -11 10 -25 10
-14 0 -25 -4 -25 -10z"/>
<path d="M1269 3743 c-8 -16 -22 -35 -32 -43 -23 -20 -53 -210 -37 -240 24
-45 87 -34 115 20 14 27 18 29 37 19 25 -14 68 3 68 26 0 23 20 18 47 -11 23
-25 34 -26 73 -10 12 5 19 -3 28 -28 14 -38 39 -51 77 -42 42 11 47 36 31 147
-9 56 -21 109 -29 118 -7 9 -19 28 -27 44 -18 37 -69 38 -96 2 -16 -22 -26
-25 -81 -25 -54 0 -64 3 -81 25 -28 35 -74 34 -93 -2z m311 -58 c0 -8 -4 -15
-10 -15 -5 0 -10 7 -10 15 0 8 5 15 10 15 6 0 10 -7 10 -15z m-252 -7 c-6 -18
-28 -21 -28 -4 0 9 7 16 16 16 9 0 14 -5 12 -12z m-38 -26 c0 -13 -12 -22 -22
-16 -10 6 -1 24 13 24 5 0 9 -4 9 -8z m65 -2 c3 -5 -1 -10 -10 -10 -9 0 -13 5
-10 10 3 6 8 10 10 10 2 0 7 -4 10 -10z m195 0 c0 -5 -7 -10 -15 -10 -8 0 -15
5 -15 10 0 6 7 10 15 10 8 0 15 -4 15 -10z m70 0 c0 -5 -7 -10 -15 -10 -8 0
-15 5 -15 10 0 6 7 10 15 10 8 0 15 -4 15 -10z m-292 -38 c2 -7 -3 -12 -12
-12 -9 0 -16 7 -16 16 0 17 22 14 28 -4z m252 3 c0 -8 -4 -15 -10 -15 -5 0
-10 7 -10 15 0 8 5 15 10 15 6 0 10 -7 10 -15z m-128 -10 c0 -5 -5 -11 -11
-13 -6 -2 -11 4 -11 13 0 9 5 15 11 13 6 -2 11 -8 11 -13z m-54 -27 c19 -19
14 -46 -9 -59 -17 -9 -25 -8 -37 5 -13 12 -13 20 -4 41 13 27 31 32 50 13z
m130 0 c30 -30 0 -78 -37 -58 -32 17 -21 70 14 70 6 0 16 -5 23 -12z"/>
<path d="M1870 3732 c-46 -23 -80 -83 -80 -145 0 -77 47 -107 165 -107 74 0
124 15 147 44 39 48 6 158 -61 203 -42 28 -120 31 -171 5z m162 -20 c15 -9 30
-22 32 -29 4 -10 1 -10 -17 1 -57 36 -148 30 -199 -12 -25 -21 -29 -22 -20 -7
36 69 129 90 204 47z m-8 -35 c14 -11 2 -13 -76 -13 -84 -1 -90 1 -63 12 39
17 116 18 139 1z m64 -88 c3 -49 0 -57 -17 -62 -28 -7 -31 -1 -31 58 0 56 5
67 30 63 11 -2 16 -18 18 -59z"/>
<path d="M2280 3740 c0 -5 9 -10 20 -10 11 0 20 5 20 10 0 6 -9 10 -20 10 -11
0 -20 -4 -20 -10z"/>
<path d="M1713 3724 c-3 -8 -1 -20 5 -26 15 -15 43 8 35 28 -7 19 -32 18 -40
-2z"/>
<path d="M2665 3731 c-3 -7 3 -11 14 -11 30 0 29 -55 0 -71 -20 -10 -20 -12
-5 -27 25 -25 38 -3 34 59 -2 41 -7 55 -20 57 -9 2 -19 -2 -23 -7z"/>
<path d="M2168 3712 c-20 -4 -24 -27 -7 -38 6 -3 15 -2 21 4 15 15 5 38 -14
34z"/>
<path d="M2297 3660 c-16 -15 -16 -18 -2 -30 22 -18 42 2 29 28 -9 19 -10 19
-27 2z"/>
<path d="M3775 3670 c3 -5 13 -10 21 -10 8 0 14 5 14 10 0 6 -9 10 -21 10 -11
0 -17 -4 -14 -10z"/>
<path d="M3795 3579 c-12 -18 16 -69 37 -69 26 0 33 26 14 55 -17 26 -40 33
-51 14z"/>
<path d="M2264 3549 c-52 -15 -66 -40 -135 -235 -32 -94 -42 -137 -28 -129 5
4 7 10 4 15 -7 12 14 17 62 15 23 -1 40 2 37 7 -3 5 -10 5 -16 2 -6 -4 -8 -3
-5 3 4 6 18 9 32 8 14 -2 25 1 25 7 0 6 11 3 24 -6 18 -11 27 -13 32 -4 5 7 3
8 -6 3 -9 -6 -11 -4 -5 5 6 9 4 11 -5 5 -9 -5 -11 -4 -6 4 5 8 13 7 28 -4 19
-13 23 -12 33 2 12 17 50 29 40 13 -6 -10 7 -20 35 -25 11 -2 18 0 15 5 -15
25 60 35 88 11 24 -20 47 -23 40 -4 -4 10 -8 11 -13 3 -5 -8 -9 -8 -13 2 -4
11 4 14 32 12 20 -1 37 -3 39 -4 1 -1 6 -3 11 -4 16 -2 25 -16 10 -16 -12 0
-12 -2 1 -9 22 -14 31 -2 18 22 -10 20 -10 21 5 8 14 -11 17 -11 17 0 0 9 3
10 8 3 4 -6 20 -10 35 -9 19 1 26 -2 23 -11 -2 -6 3 -19 13 -28 17 -15 19 -15
32 1 8 9 9 14 2 10 -6 -4 -14 -3 -18 3 -4 6 -11 7 -17 4 -6 -4 -8 -2 -5 4 8
11 25 11 45 -1 6 -5 16 -6 21 -2 5 3 12 1 16 -5 4 -6 11 -7 17 -4 7 5 9 2 5
-8 -6 -17 8 -19 32 -4 10 6 12 5 7 -2 -4 -7 -3 -12 3 -12 5 0 13 5 16 10 7 11
-62 204 -96 272 -39 77 -98 89 -226 48 l-73 -24 -67 21 c-89 28 -131 33 -169
22z"/>
<path d="M3885 3530 c3 -5 12 -10 20 -10 8 0 17 5 20 10 4 6 -5 10 -20 10 -15
0 -24 -4 -20 -10z"/>
<path d="M3836 3484 c-9 -22 11 -54 35 -54 27 0 35 27 14 50 -22 24 -41 26
-49 4z"/>
<path d="M1640 3384 c-14 -14 -36 -30 -50 -37 -32 -16 -47 -58 -32 -92 6 -14
19 -25 28 -25 10 0 41 -11 70 -25 55 -26 92 -26 114 0 8 10 18 9 47 -6 47 -24
50 -24 93 3 19 12 45 22 57 22 13 1 28 7 34 13 19 19 13 65 -11 85 -36 29 -50
23 -51 -24 l-2 -43 -6 49 c-5 34 -14 53 -32 67 -27 21 -79 25 -96 8 -9 -9 -19
-6 -39 10 -38 30 -94 28 -124 -5z m111 -7 c66 -51 42 -167 -36 -167 -25 0 -40
8 -59 31 -31 37 -33 62 -6 89 21 21 40 19 40 -3 0 -7 -4 -6 -11 3 -9 12 -10
12 -5 -4 7 -20 -11 -49 -25 -40 -16 10 -9 -13 12 -40 44 -56 133 -13 116 56
-9 33 -69 72 -102 65 -14 -2 -25 -1 -25 4 0 20 76 25 101 6z m124 -27 c0 -8 7
-15 15 -15 8 0 15 -7 15 -15 0 -8 -6 -14 -13 -12 -8 1 -11 -2 -7 -8 3 -6 11
-8 16 -5 5 4 7 -4 5 -17 -3 -13 -5 -27 -5 -32 -1 -4 -8 -5 -17 -2 -8 3 -12 2
-9 -4 3 -6 -3 -10 -14 -10 -13 0 -21 7 -21 18 0 13 -2 14 -9 4 -5 -9 -8 -2 -9
20 -1 33 14 62 28 53 5 -3 7 -23 5 -45 -3 -35 -2 -38 12 -25 8 8 19 12 25 9 7
-4 8 -2 4 5 -4 6 -11 9 -16 6 -5 -3 -8 9 -7 27 2 31 0 33 -27 31 -32 -3 -25
12 9 20 16 4 15 5 -5 6 -15 0 -31 -4 -38 -11 -8 -8 -12 -9 -12 -1 0 15 19 22
50 20 15 -1 25 -8 25 -17z m-138 -22 c13 -12 23 -26 23 -32 0 -6 -8 -2 -16 9
-11 14 -18 16 -21 7 -3 -6 -8 -10 -12 -8 -7 5 -11 -9 -12 -46 0 -23 -6 -23
-19 2 -9 16 -7 26 9 46 12 15 18 30 15 35 -10 17 10 9 33 -13z m-112 -43 c1
-43 -1 -46 -25 -43 -19 2 -26 10 -28 31 -5 41 4 57 30 57 21 0 23 -5 23 -45z
m361 10 c13 -20 14 -28 4 -40 -18 -21 -30 -9 -30 31 0 41 4 42 26 9z m-237 -9
c8 -10 9 -16 1 -21 -6 -3 -7 -11 -4 -17 4 -7 2 -8 -5 -4 -6 4 -9 11 -6 16 3 5
1 11 -4 14 -5 4 -13 1 -17 -5 -4 -7 -3 -9 4 -6 6 5 8 -1 4 -15 -5 -21 -6 -21
-12 -2 -8 20 4 54 19 54 5 0 14 -6 20 -14z m166 -56 c-22 -24 -73 -26 -101 -4
-18 15 -18 15 3 5 31 -16 79 -13 93 4 7 8 15 15 18 15 3 0 -3 -9 -13 -20z"/>
<path d="M1839 3318 c-5 -15 -4 -50 1 -53 3 -2 6 9 6 26 0 24 -3 37 -7 27z"/>
<path d="M1685 3289 c-4 -6 -5 -12 -2 -15 2 -3 7 2 10 11 7 17 1 20 -8 4z"/>
<path d="M2980 3370 c0 -5 7 -10 15 -10 25 0 20 -56 -6 -63 -26 -7 -20 -31 9
-35 21 -3 22 1 22 57 0 54 -2 61 -20 61 -11 0 -20 -4 -20 -10z"/>
<path d="M3905 3325 c-48 -47 -19 -115 48 -115 42 0 67 26 67 68 0 66 -69 94
-115 47z"/>
<path d="M2346 3251 c-4 -5 -2 -12 3 -15 5 -4 12 -2 15 3 4 5 2 12 -3 15 -5 4
-12 2 -15 -3z"/>
<path d="M2487 3247 c-3 -8 1 -14 8 -14 7 0 11 6 8 14 -3 7 -6 13 -8 13 -2 0
-5 -6 -8 -13z"/>
<path d="M2566 3248 c3 -5 10 -6 15 -3 13 9 11 12 -6 12 -8 0 -12 -4 -9 -9z"/>
<path d="M2666 3241 c8 -9 44 -11 44 -3 0 4 -11 8 -25 8 -13 0 -22 -2 -19 -5z"/>
<path d="M2799 3228 c0 -2 -2 -11 -4 -21 -3 -15 -1 -16 11 -6 7 6 11 15 8 20
-5 9 -13 12 -15 7z"/>
<path d="M2134 3186 c1 -8 5 -18 8 -22 4 -3 5 1 4 10 -1 8 -5 18 -8 22 -4 3
-5 -1 -4 -10z"/>
<path d="M3873 3152 c-18 -37 -34 -54 -80 -81 -32 -19 -68 -41 -81 -48 -13 -8
-32 -28 -42 -46 -18 -29 -20 -52 -20 -247 0 -118 -4 -220 -8 -227 -4 -6 -20
-13 -35 -15 -38 -4 -39 -22 0 -26 58 -6 63 14 63 253 0 255 2 260 106 316 76
41 120 87 130 137 9 47 -8 39 -33 -16z"/>
<path d="M2053 3096 c-6 -20 -17 -33 -33 -38 -135 -39 -145 -43 -148 -65 -4
-24 47 -67 118 -100 l38 -18 4 -125 c3 -112 5 -128 27 -158 13 -19 35 -35 51
-39 25 -5 31 -13 49 -72 26 -86 70 -151 137 -204 88 -68 131 -87 199 -87 83 0
151 35 241 125 59 59 74 82 92 135 12 35 22 72 22 82 0 11 7 18 20 18 11 0 37
15 58 34 l37 34 4 132 3 131 47 23 c56 29 101 69 101 91 0 19 -54 43 -117 52
-41 5 -47 10 -60 43 l-15 36 -433 0 -433 1 -9 -31z m84 -87 c177 -33 526 -33
707 0 73 13 140 20 155 16 25 -7 25 -8 -14 -22 -144 -52 -405 -79 -622 -63
-152 11 -208 20 -328 52 -60 16 -74 23 -60 29 29 11 32 11 162 -12z"/>
<path d="M4071 3088 c-1 -27 3 -48 7 -48 4 0 6 17 4 38 -5 58 -10 62 -11 10z"/>
<path d="M1688 3103 c-35 -14 -38 -19 -38 -55 0 -31 -4 -41 -20 -45 -22 -6
-28 -43 -7 -43 22 0 37 22 37 55 0 28 4 32 40 42 35 9 40 8 40 -7 0 -10 -9
-20 -21 -23 -26 -7 -20 -32 7 -32 16 0 19 9 22 63 3 69 2 70 -60 45z"/>
<path d="M3900 3002 c-40 -20 -77 -70 -86 -118 -10 -53 30 -123 86 -152 104
-53 210 14 210 133 0 116 -110 188 -210 137z m95 -12 c19 -8 19 -9 -3 -9 -34
-1 -99 -38 -114 -64 -7 -12 -19 -40 -25 -62 l-13 -40 4 58 c3 65 28 101 80
116 39 12 46 12 71 1z"/>
<path d="M3282 2998 c-9 -9 -12 -74 -12 -229 0 -184 2 -220 16 -233 12 -13 39
-16 128 -16 97 0 115 3 129 18 15 16 17 48 17 233 0 154 -3 218 -12 227 -8 8
-52 12 -133 12 -81 0 -125 -4 -133 -12z m156 -15 c-10 -2 -28 -2 -40 0 -13 2
-5 4 17 4 22 1 32 -1 23 -4z m102 -208 l0 -175 -125 0 -125 0 0 175 0 175 125
0 125 0 0 -175z m-106 -203 c2 -4 1 -14 -4 -22 -7 -11 -12 -12 -21 -3 -6 6 -8
16 -5 22 8 13 23 14 30 3z"/>
<path d="M3300 2775 l0 -165 115 0 115 0 0 165 0 165 -115 0 -115 0 0 -165z"/>
<path d="M1733 2888 c-12 -12 -37 -27 -55 -32 -29 -10 -33 -15 -33 -45 0 -24
6 -37 20 -45 11 -6 41 -23 66 -38 59 -36 139 -40 139 -8 0 16 7 20 30 20 33 0
44 22 38 81 -3 29 -7 35 -33 39 -22 4 -31 11 -33 28 -3 20 -9 22 -60 22 -46 0
-62 -4 -79 -22z m72 -14 c16 -6 45 -54 45 -74 0 -20 -40 -50 -67 -50 -61 0
-85 71 -37 109 29 23 34 24 59 15z m113 -71 c-2 -31 -7 -39 -25 -41 -17 -3
-23 2 -23 15 0 39 13 63 32 63 16 0 19 -6 16 -37z"/>
<path d="M1747 2842 c-22 -24 -21 -45 1 -65 24 -22 45 -21 65 1 22 24 21 45
-1 65 -24 22 -45 21 -65 -1z"/>
<path d="M3130 2840 c-39 -15 -45 -22 -48 -51 -2 -19 -12 -39 -23 -47 -26 -18
-24 -34 4 -30 17 2 23 10 25 40 2 28 8 37 27 42 13 3 30 9 39 12 11 4 16 0 16
-14 0 -11 -8 -22 -20 -25 -22 -6 -28 -37 -7 -37 30 1 38 17 35 72 l-3 56 -45
-18z"/>
<path d="M830 2620 l0 -220 375 0 375 0 0 220 0 220 -375 0 -375 0 0 -220z
m558 183 c-98 -2 -258 -2 -355 0 -98 1 -18 2 177 2 195 0 275 -1 178 -2z
m-336 -31 l-54 -3 29 -25 c15 -13 24 -24 19 -24 -12 0 -56 41 -56 51 0 10 57
16 90 9 16 -3 5 -6 -28 -8z m38 -42 c0 -5 -7 -10 -16 -10 -8 0 -12 5 -9 10 3
6 10 10 16 10 5 0 9 -4 9 -10z m-20 -29 c0 -5 8 -12 18 -14 13 -4 12 -5 -4 -6
-12 0 -24 6 -28 14 -3 8 -1 15 4 15 6 0 10 -4 10 -9z m70 -1 c0 -5 -7 -10 -16
-10 -8 0 -12 5 -9 10 3 6 10 10 16 10 5 0 9 -4 9 -10z m70 -2 c0 -5 -13 -8
-30 -8 -16 0 -30 3 -30 8 0 4 14 7 30 7 17 0 30 -3 30 -7z m-14 -35 c-7 -7
-108 -5 -115 3 -2 2 24 4 59 4 35 0 60 -3 56 -7z m-58 -30 c-10 -2 -28 -2 -40
0 -13 2 -5 4 17 4 22 1 32 -1 23 -4z m-17 -36 c-7 -7 -18 -7 -33 0 -22 10 -21
11 10 10 22 0 30 -3 23 -10z m-46 -17 c-3 -5 21 -11 57 -13 l63 -3 -67 -2
c-63 -2 -79 4 -61 21 10 10 15 8 8 -3z m83 -47 c-21 -2 -57 -2 -80 0 -24 2 -7
4 37 4 44 0 63 -2 43 -4z m79 1 c-3 -3 -12 -4 -19 -1 -8 3 -5 6 6 6 11 1 17
-2 13 -5z m86 -1 c-13 -2 -35 -2 -50 0 -16 2 -5 4 22 4 28 0 40 -2 28 -4z
m105 0 c-10 -2 -28 -2 -40 0 -13 2 -5 4 17 4 22 1 32 -1 23 -4z m-331 -19 c-3
-3 -12 -4 -19 -1 -8 3 -5 6 6 6 11 1 17 -2 13 -5z m-4 -31 c-7 -2 -19 -2 -25
0 -7 3 -2 5 12 5 14 0 19 -2 13 -5z m-48 -23 c3 -5 -3 -10 -14 -10 -12 0 -21
5 -21 10 0 6 6 10 14 10 8 0 18 -4 21 -10z m35 0 c0 -5 -4 -10 -10 -10 -5 0
-10 5 -10 10 0 6 5 10 10 10 6 0 10 -4 10 -10z m28 -27 c-21 -2 -55 -2 -75 0
-21 2 -4 4 37 4 41 0 58 -2 38 -4z"/>
<path d="M3804 2697 c-8 -17 -7 -24 1 -24 6 0 12 11 13 24 2 29 0 29 -14 0z"/>
<path d="M3084 2619 c-3 -6 1 -18 9 -27 13 -12 19 -13 31 -3 8 7 12 19 9 27
-6 17 -39 19 -49 3z"/>
<path d="M1790 2600 c-18 -18 -20 -33 -20 -135 0 -110 1 -117 25 -140 30 -31
65 -32 93 -2 20 21 22 34 22 145 0 114 -1 122 -22 136 -31 22 -74 20 -98 -4z
m88 -62 c2 -19 -3 -30 -17 -38 -28 -15 -61 3 -61 34 0 31 9 37 45 34 24 -2 31
-8 33 -30z m-27 -111 c-13 -13 -26 -3 -16 12 3 6 11 8 17 5 6 -4 6 -10 -1 -17z"/>
<path d="M1825 2540 c-3 -6 1 -13 10 -16 19 -8 30 0 20 15 -8 14 -22 14 -30 1z"/>
<path d="M3905 2605 c-39 -10 -61 -25 -96 -64 -59 -63 -79 -121 -79 -225 1
-107 20 -148 113 -239 67 -66 76 -78 88 -131 8 -39 9 -60 2 -64 -5 -4 -13 -74
-17 -159 -6 -144 -5 -153 13 -163 28 -14 94 -13 116 3 17 13 17 23 6 206 -14
227 -15 221 94 326 83 79 96 109 96 226 1 147 -62 251 -170 283 -65 19 -99 19
-166 1z m190 -49 c69 -41 116 -130 114 -215 -2 -32 -3 -37 -6 -16 -2 17 -7 37
-10 45 -3 8 -7 20 -8 25 -1 6 -3 13 -5 18 -4 10 -7 25 -9 38 0 5 -5 8 -10 5
-5 -3 -17 7 -26 22 l-18 27 24 -20 24 -20 -19 22 c-15 18 -22 20 -33 12 -11
-10 -11 -15 -1 -28 12 -14 11 -14 -5 -2 -9 8 -15 16 -12 19 3 3 0 11 -6 19 -6
7 -8 13 -5 13 4 0 2 9 -4 20 -6 11 -15 18 -21 15 -5 -4 -7 -11 -4 -16 10 -15
-2 -10 -16 8 -12 15 -12 16 1 8 9 -5 12 -5 7 1 -10 11 -80 16 -125 8 -18 -3
-49 -19 -70 -37 -34 -29 -35 -29 -12 -3 62 70 168 83 255 32z m-85 -586 c0
-83 -1 -90 -20 -90 -19 0 -20 7 -20 90 0 83 1 90 20 90 19 0 20 -7 20 -90z
m10 -130 c0 -5 -13 -10 -30 -10 -16 0 -30 5 -30 10 0 6 14 10 30 10 17 0 30
-4 30 -10z m0 -51 c0 -5 -13 -9 -30 -9 -35 0 -41 17 -7 22 26 5 37 1 37 -13z
m-2 -115 c3 -85 -9 -113 -43 -100 -12 4 -15 24 -15 96 l0 91 28 -3 c27 -3 27
-4 30 -84z"/>
<path d="M4094 2526 c1 -8 5 -18 8 -22 4 -3 5 1 4 10 -1 8 -5 18 -8 22 -4 3
-5 -1 -4 -10z"/>
<path d="M3970 1610 c0 -11 6 -20 13 -20 19 0 27 10 20 26 -8 21 -33 17 -33
-6z"/>
<path d="M1695 2600 c3 -5 13 -10 21 -10 8 0 14 5 14 10 0 6 -9 10 -21 10 -11
0 -17 -4 -14 -10z"/>
<path d="M3075 2551 c-32 -13 -55 -46 -62 -85 -17 -109 111 -169 181 -85 45
54 27 132 -38 163 -37 18 -51 19 -81 7z m45 -36 c15 -19 4 -52 -21 -60 -38
-12 -65 35 -37 63 16 16 43 15 58 -3z"/>
<path d="M1693 2524 c-7 -18 11 -39 26 -30 17 11 13 46 -4 46 -9 0 -18 -7 -22
-16z"/>
<path d="M3508 2393 c-9 -2 -20 -13 -23 -24 -4 -10 -15 -19 -26 -19 -17 0 -18
3 -9 20 9 17 8 20 -8 20 -10 0 -24 -11 -30 -25 -7 -15 -20 -25 -32 -25 -18 0
-19 3 -10 20 10 18 8 20 -25 20 l-35 0 0 -100 0 -101 148 3 147 3 1 91 c0 50
4 99 7 108 10 27 -29 19 -47 -9 -9 -14 -23 -25 -31 -25 -17 0 -20 16 -5 25 12
7 14 26 3 24 -5 -1 -16 -3 -25 -6z m20 -90 c-32 -2 -84 -2 -115 0 -32 2 -6 3
57 3 63 0 89 -1 58 -3z"/>
<path d="M792 2370 c12 -19 24 -20 195 -20 176 0 183 -1 183 -20 0 -16 -7 -20
-35 -20 -19 0 -35 -4 -35 -10 0 -6 43 -10 110 -10 67 0 110 4 110 10 0 6 -16
10 -35 10 -28 0 -35 4 -35 20 0 19 7 20 174 20 145 0 177 3 190 16 9 8 16 17
16 20 0 2 -191 4 -425 4 -423 0 -425 0 -413 -20z"/>
<path d="M1993 2285 c-29 -12 -33 -19 -33 -53 0 -31 -4 -41 -20 -45 -29 -7
-26 -39 3 -35 18 2 23 10 25 46 3 38 7 45 35 57 17 7 35 11 39 9 16 -10 7 -43
-12 -49 -28 -9 -26 -37 3 -33 19 3 22 10 25 61 3 64 -4 69 -65 42z"/>
<path d="M2925 2245 c-49 -48 -16 -125 52 -125 66 0 94 89 42 133 -30 24 -66
21 -94 -8z m68 -10 c1 -5 -6 -11 -15 -13 -11 -2 -18 3 -18 13 0 17 30 18 33 0z
m37 -29 c0 -3 -4 -8 -10 -11 -5 -3 -10 -1 -10 4 0 6 5 11 10 11 6 0 10 -2 10
-4z"/>
<path d="M1557 2250 c-41 -13 -95 -56 -113 -93 -21 -40 -22 -123 -1 -164 20
-39 70 -81 105 -89 15 -3 33 -8 41 -10 23 -7 94 17 130 43 46 36 64 83 59 160
-3 53 -9 68 -33 94 -17 17 -41 37 -55 44 -35 18 -100 25 -133 15z m-11 -52
c-21 -17 -51 -49 -67 -71 -32 -44 -38 -36 -13 16 9 19 35 46 57 61 56 36 70
33 23 -6z m99 -2 c-39 -27 -96 -85 -116 -115 -13 -21 -18 -22 -38 -12 -22 12
-22 13 -5 39 44 71 124 125 167 114 20 -5 20 -6 -8 -26z m80 -21 c22 -21 33
-45 21 -45 -5 0 -76 40 -86 47 -5 5 21 23 33 23 4 0 19 -11 32 -25z m-19 -46
c44 -25 54 -35 54 -57 0 -41 -14 -57 -31 -36 -8 10 -40 36 -71 59 -44 32 -55
44 -46 53 18 18 36 15 94 -19z m-46 -59 c77 -57 86 -71 61 -94 -15 -14 -20
-14 -46 3 -17 10 -52 37 -78 61 -46 41 -47 43 -31 61 9 11 19 19 22 19 2 0 35
-23 72 -50z m2 -106 c26 -8 22 -21 -9 -32 -35 -12 -67 5 -105 55 -23 29 -25
38 -16 58 11 24 11 24 61 -25 28 -28 59 -52 69 -56z m-171 86 c5 0 16 -17 24
-37 9 -21 26 -48 37 -60 l22 -23 -31 10 c-38 14 -78 57 -87 94 -6 24 -4 27 9
22 9 -3 21 -6 26 -6z"/>
<path d="M878 2229 c-19 -11 -24 -44 -9 -53 5 -3 29 5 53 19 23 14 54 25 68
25 20 0 22 2 10 10 -20 13 -100 12 -122 -1z"/>
<path d="M1210 2208 l-25 -14 -3 -184 c-1 -102 0 -195 3 -206 6 -27 56 -48 90
-40 14 4 34 15 45 26 18 18 20 34 20 203 0 133 -3 188 -13 201 -17 23 -85 31
-117 14z m20 -68 c0 -5 -4 -10 -10 -10 -5 0 -10 5 -10 10 0 6 5 10 10 10 6 0
10 -4 10 -10z m40 0 c0 -5 -4 -10 -10 -10 -5 0 -10 5 -10 10 0 6 5 10 10 10 6
0 10 -4 10 -10z m40 0 c0 -5 -4 -10 -10 -10 -5 0 -10 5 -10 10 0 6 5 10 10 10
6 0 10 -4 10 -10z m0 -68 c0 -11 -85 -10 -96 1 -4 4 16 7 44 7 29 0 52 -4 52
-8z m-27 -49 c-13 -2 -35 -2 -50 0 -16 2 -5 4 22 4 28 0 40 -2 28 -4z m-43
-43 c0 -5 -7 -10 -15 -10 -8 0 -15 5 -15 10 0 6 7 10 15 10 8 0 15 -4 15 -10z
m60 0 c0 -5 -4 -10 -9 -10 -6 0 -13 5 -16 10 -3 6 1 10 9 10 9 0 16 -4 16 -10z
m-60 -35 c0 -8 -7 -15 -15 -15 -8 0 -15 7 -15 15 0 8 7 15 15 15 8 0 15 -7 15
-15z m60 0 c0 -8 -4 -15 -9 -15 -13 0 -22 16 -14 24 11 11 23 6 23 -9z m-60
-35 c0 -5 -7 -10 -15 -10 -8 0 -15 5 -15 10 0 6 7 10 15 10 8 0 15 -4 15 -10z
m60 0 c0 -5 -4 -10 -10 -10 -5 0 -10 5 -10 10 0 6 5 10 10 10 6 0 10 -4 10
-10z"/>
<path d="M955 2200 c-18 -7 -17 -8 10 -14 17 -4 50 -17 75 -29 25 -12 49 -23
53 -25 18 -8 -24 58 -42 68 -23 12 -67 12 -96 0z"/>
<path d="M811 2170 c-11 -19 -21 -44 -21 -55 0 -17 4 -15 32 12 27 27 30 35
21 55 -10 23 -10 23 -32 -12z"/>
<path d="M3093 2185 c-29 -20 -37 -59 -19 -94 37 -71 146 -45 146 35 0 35 -8
47 -37 63 -30 15 -64 14 -90 -4z m63 -6 c10 -17 -13 -36 -27 -22 -12 12 -4 33
11 33 5 0 12 -5 16 -11z m44 -39 c0 -5 -4 -10 -10 -10 -5 0 -10 5 -10 10 0 6
5 10 10 10 6 0 10 -4 10 -10z"/>
<path d="M897 2168 c-17 -13 -16 -16 17 -54 39 -46 153 -127 166 -119 19 12
33 81 21 104 -26 47 -168 96 -204 69z"/>
<path d="M816 2106 c-14 -19 -26 -39 -26 -45 0 -16 33 -81 41 -81 4 0 23 26
43 58 l35 57 -21 23 c-29 30 -41 28 -72 -12z"/>
<path d="M3287 2113 c-4 -3 -7 -42 -7 -85 l0 -78 55 0 55 0 0 40 0 40 145 0
145 0 0 45 0 45 -193 0 c-107 0 -197 -3 -200 -7z m372 -45 c-1 -24 -3 -27 -6
-10 -4 22 -6 22 -167 22 l-162 0 -3 -52 c-3 -76 -11 -73 -11 5 l0 67 175 0
175 0 -1 -32z"/>
<path d="M890 2043 c-11 -21 -26 -46 -33 -56 -10 -15 -9 -21 8 -33 28 -21 64
-29 76 -17 6 6 17 28 24 49 13 37 12 40 -13 67 -14 15 -29 27 -34 27 -4 0 -17
-17 -28 -37z"/>
<path d="M980 1983 c-8 -21 -17 -42 -19 -47 -6 -14 55 1 84 20 l26 17 -35 23
c-19 13 -37 24 -38 24 -2 0 -10 -17 -18 -37z"/>
<path d="M3410 1958 c0 -29 -3 -63 -6 -75 l-6 -23 226 0 227 0 -3 73 -3 72
-217 3 -218 2 0 -52z m283 25 c-7 -2 -19 -2 -25 0 -7 3 -2 5 12 5 14 0 19 -2
13 -5z m80 0 c-7 -2 -19 -2 -25 0 -7 3 -2 5 12 5 14 0 19 -2 13 -5z m57 -43
c0 -27 -4 -50 -10 -50 -5 0 -10 16 -10 36 0 21 -4 33 -10 29 -5 -3 -10 -1 -10
4 0 6 6 11 13 11 8 0 7 4 -3 10 -12 8 -11 10 8 10 20 0 22 -5 22 -50z m-163 8
c-3 -8 -6 -5 -6 6 -1 11 2 17 5 13 3 -3 4 -12 1 -19z m30 0 c-3 -8 -6 -5 -6 6
-1 11 2 17 5 13 3 -3 4 -12 1 -19z m33 12 c0 -5 -2 -10 -4 -10 -3 0 -8 5 -11
10 -3 6 -1 10 4 10 6 0 11 -4 11 -10z"/>
<path d="M907 1904 c-3 -3 -1 -14 6 -25 10 -17 13 -17 29 -2 10 9 18 20 18 25
0 9 -44 11 -53 2z"/>
<path d="M3766 1821 c-3 -5 1 -11 9 -15 9 -3 15 0 15 9 0 16 -16 20 -24 6z"/>
<path d="M1014 1756 c-18 -8 -35 -19 -38 -25 -4 -6 -16 -11 -27 -11 -10 0 -19
-4 -19 -10 0 -16 52 -11 72 7 30 27 86 22 114 -11 31 -35 30 -67 -2 -105 -19
-23 -34 -31 -59 -31 -40 0 -85 46 -85 88 -1 25 -2 25 -14 9 -28 -37 15 -109
75 -122 38 -8 95 11 114 38 18 25 20 96 4 131 -11 24 -63 56 -91 56 -7 -1 -27
-7 -44 -14z"/>
<path d="M3750 1725 c-10 -12 -10 -19 -2 -27 16 -16 42 -2 42 22 0 24 -22 26
-40 5z"/>
<path d="M1023 1710 c-30 -12 -40 -56 -22 -89 30 -54 119 -32 119 29 0 50 -48
80 -97 60z m62 -40 c3 -6 3 -19 0 -31 -10 -31 -49 -21 -53 14 -3 23 0 27 22
27 14 0 28 -5 31 -10z"/>
<path d="M1047 1663 c-12 -11 -8 -23 8 -23 8 0 15 7 15 15 0 16 -12 20 -23 8z"/>
</g>
</svg>
